# xmcd
#
# Track frame offsets: 
#        150
#        10747
#        23559
#        35284
#        49114
#        60354
#        72681
#        86547
#        100640
#        112031
#        124786
#        136229
#        147332
#        161320
#        175374
#        188348
#        203041
#        215628
#
# Disc length: 3054 seconds
#
# Revision: 1
# Processed by: cddbd v1.5.2PL0 Copyright (c) Steve Scherf et al.
# Submitted via: ExactAudioCopy v0.95b2
#
DISCID=ef0bec12
DTITLE=Jazz Gillum - Jazz Gillum The Essential
DYEAR=2003
DGENRE=Blues
TTITLE0=Don't You Scandalize My Name
TTITLE1=I Went To The Gypsy
TTITLE2=Good Old 51 Highway
TTITLE3=Take A Little Walk With Me
TTITLE4=It Sure Had A Kick
TTITLE5=War Time Blues
TTITLE6=Reckless Rider Blues
TTITLE7=Hand Reader Blues
TTITLE8=Treat Me Like I Treat You - (with Curtis Jones)
TTITLE9=Boar Hog Blues
TTITLE10=You Got To Run Me Down
TTITLE11=Gillum's Windy Blues
TTITLE12=New "Sail On, Little Girl"
TTITLE13=Against My Will
TTITLE14=It's All Over Now
TTITLE15=I'm Not The Lad
TTITLE16=Roll Dem Bones
TTITLE17=Little Woman
EXTD=william hale
EXTT0=
EXTT1=
EXTT2=
EXTT3=
EXTT4=
EXTT5=
EXTT6=
EXTT7=
EXTT8=
EXTT9=
EXTT10=
EXTT11=
EXTT12=
EXTT13=
EXTT14=
EXTT15=
EXTT16=
EXTT17=
PLAYORDER=
